<svg xmlns="http://www.w3.org/2000/svg" width="1600" height="900" viewBox="0 0 1600 900" role="img" aria-labelledby="title desc">
  <title id="title">MicroFlow dashboard preview</title>
  <desc id="desc">A small shop management dashboard with sales, inventory, quick actions, and offline sync status.</desc>
  <defs>
    <linearGradient id="hero" x1="0" x2="1" y1="0" y2="1">
      <stop stop-color="#111827"/>
      <stop offset="0.55" stop-color="#151923"/>
      <stop offset="1" stop-color="#ff4f0f"/>
    </linearGradient>
    <linearGradient id="page" x1="0" x2="1">
      <stop stop-color="#f5f2ee"/>
      <stop offset="1" stop-color="#ebe8e2"/>
    </linearGradient>
    <filter id="shadow" x="-20%" y="-20%" width="140%" height="140%">
      <feDropShadow dx="0" dy="10" stdDeviation="14" flood-color="#111827" flood-opacity="0.14"/>
    </filter>
  </defs>
  <rect width="1600" height="900" fill="url(#page)"/>
  <rect width="226" height="900" fill="#0d111a"/>
  <rect x="19" y="20" width="36" height="36" rx="8" fill="#121824"/>
  <text x="67" y="33" fill="#fff" font-family="Arial, sans-serif" font-size="22" font-weight="800" font-style="italic">Micro<tspan fill="#ff5a12">Flow</tspan></text>
  <text x="68" y="53" fill="#94a3b8" font-family="Arial, sans-serif" font-size="11">Siphiwo's store</text>
  <g font-family="Arial, sans-serif" font-size="15" font-weight="700">
    <rect x="12" y="87" width="204" height="39" rx="8" fill="#fff"/>
    <text x="52" y="112" fill="#0f172a">Dashboard</text>
    <text x="52" y="154" fill="#9aa5b5">Sales</text>
    <text x="52" y="196" fill="#9aa5b5">Invoices</text>
    <text x="52" y="238" fill="#9aa5b5">Inventory</text>
    <text x="52" y="280" fill="#9aa5b5">Customers</text>
    <text x="52" y="322" fill="#9aa5b5">Team</text>
    <text x="52" y="364" fill="#9aa5b5">Expenses</text>
    <text x="52" y="406" fill="#9aa5b5">Reports</text>
    <text x="52" y="448" fill="#9aa5b5">Help</text>
  </g>
  <line x1="0" y1="792" x2="226" y2="792" stroke="#202938"/>
  <circle cx="29" cy="820" r="5" fill="#22c55e"/>
  <text x="48" y="824" fill="#e5e7eb" font-family="Arial, sans-serif" font-size="13" font-weight="700">Online - tap to sync</text>
  <circle cx="35" cy="862" r="14" fill="#1d4ed8"/>
  <text x="58" y="859" fill="#fff" font-family="Arial, sans-serif" font-size="12" font-weight="800">SIPHIWAYINKHOSI M...</text>
  <text x="58" y="875" fill="#94a3b8" font-family="Arial, sans-serif" font-size="10">siphiwayinkhosi.mahlalela...</text>
  <g transform="translate(520 42)" font-family="Arial, sans-serif">
    <text x="0" y="0" fill="#64748b" font-size="16">Good morning,</text>
    <text x="0" y="27" fill="#0f172a" font-size="24" font-weight="900">SIPHIWAYINKHOSI</text>
    <text x="0" y="50" fill="#94a3b8" font-size="13">Siphiwo's store</text>
  </g>
  <g transform="translate(520 124)" filter="url(#shadow)" font-family="Arial, sans-serif">
    <rect width="940" height="128" rx="8" fill="url(#hero)"/>
    <text x="16" y="28" fill="#fff" font-size="14" font-weight="800">Today's Sales Value</text>
    <text x="16" y="60" fill="#fff" font-size="25" font-weight="900">E 10.00</text>
    <text x="16" y="91" fill="#ffb08f" font-size="13">This Week</text>
    <text x="16" y="110" fill="#fff" font-size="14" font-weight="800">E 10.00</text>
    <text x="325" y="91" fill="#ffb08f" font-size="13">This Month</text>
    <text x="325" y="110" fill="#fff" font-size="14" font-weight="800">E 10.00</text>
    <text x="630" y="91" fill="#ffb08f" font-size="13">Today Profit</text>
    <text x="630" y="110" fill="#2dd4bf" font-size="14" font-weight="800">E 10.00</text>
  </g>
  <g transform="translate(520 270)" font-family="Arial, sans-serif">
    <rect width="940" height="60" rx="8" fill="#fff" stroke="#d8d8d8"/>
    <text x="34" y="27" fill="#0f172a" font-size="16" font-weight="800">Backup queue clear</text>
    <text x="34" y="46" fill="#94a3b8" font-size="12">Last cloud check: 16 Jun 2026, 02:17</text>
    <text x="882" y="35" fill="#ff4f0f" font-size="12" font-weight="800">Manage</text>
  </g>
  <g transform="translate(520 356)" font-family="Arial, sans-serif">
    <rect width="940" height="108" rx="8" fill="#fff" stroke="#d8d8d8"/>
    <text x="58" y="26" fill="#1d4ed8" font-size="14" font-weight="800">Other Business briefing</text>
    <text x="58" y="46" fill="#0f172a" font-size="15" font-weight="800">coca cola 500ml is leading</text>
    <text x="58" y="70" fill="#64748b" font-size="12">E 10.00 tracked. Review profit after expenses, not only revenue.</text>
    <text x="58" y="95" fill="#1d4ed8" font-size="13" font-weight="800">Read briefing -></text>
  </g>
  <g transform="translate(520 486)" font-family="Arial, sans-serif">
    <g>
      <rect width="198" height="130" rx="8" fill="#fff" stroke="#d8d8d8"/>
      <rect x="17" y="17" width="39" height="39" rx="12" fill="#eff6ff"/>
      <text x="17" y="82" fill="#64748b" font-size="12">Today's Sales</text>
      <text x="17" y="107" fill="#0f172a" font-size="22" font-weight="900">1</text>
    </g>
    <g transform="translate(210 0)">
      <rect width="198" height="130" rx="8" fill="#fff" stroke="#d8d8d8"/>
      <rect x="17" y="17" width="39" height="39" rx="12" fill="#ecfeff"/>
      <text x="17" y="82" fill="#64748b" font-size="12">Customers</text>
      <text x="17" y="107" fill="#0f172a" font-size="22" font-weight="900">0</text>
    </g>
    <g transform="translate(420 0)">
      <rect width="198" height="130" rx="8" fill="#fff" stroke="#d8d8d8"/>
      <rect x="17" y="17" width="39" height="39" rx="12" fill="#f0fdf4"/>
      <text x="17" y="82" fill="#64748b" font-size="12">Stock Alerts</text>
      <text x="17" y="107" fill="#0f172a" font-size="22" font-weight="900">0</text>
    </g>
  </g>
  <g transform="translate(1160 486)" font-family="Arial, sans-serif">
    <rect width="300" height="360" rx="8" fill="#fff" stroke="#d8d8d8"/>
    <text x="16" y="29" fill="#64748b" font-size="14" font-weight="800">QUICK ACTIONS</text>
    <g font-size="11" fill="#334155" text-anchor="middle">
      <rect x="56" y="52" width="48" height="48" rx="12" fill="#ff5a12"/><text x="80" y="120">Quick Sale</text>
      <rect x="196" y="52" width="48" height="48" rx="12" fill="#0891b2"/><text x="220" y="120">Quick Entry</text>
      <rect x="56" y="140" width="48" height="48" rx="12" fill="#4f46e5"/><text x="80" y="208">Invoice</text>
      <rect x="196" y="140" width="48" height="48" rx="12" fill="#22c55e"/><text x="220" y="208">New Sale</text>
      <rect x="56" y="228" width="48" height="48" rx="12" fill="#14b8a6"/><text x="80" y="296">Add Product</text>
      <rect x="196" y="228" width="48" height="48" rx="12" fill="#0891b2"/><text x="220" y="296">Adjust Stock</text>
    </g>
  </g>
  <g transform="translate(520 640)" font-family="Arial, sans-serif">
    <text x="0" y="0" fill="#0f172a" font-size="15" font-weight="900">Recent Sales</text>
    <rect y="18" width="620" height="70" rx="8" fill="#fff" stroke="#d8d8d8"/>
    <text x="58" y="51" fill="#0f172a" font-size="15" font-weight="900">MF-MQFW6BR7</text>
    <text x="58" y="70" fill="#94a3b8" font-size="12">16 Jun 2026, 02:16</text>
    <text x="565" y="48" fill="#0f172a" font-size="15" font-weight="900">E 10.00</text>
    <rect x="538" y="56" width="70" height="22" rx="6" fill="#bbf7d0"/><text x="552" y="72" fill="#15803d" font-size="12" font-weight="800">completed</text>
  </g>
</svg>
