<svg xmlns="http://www.w3.org/2000/svg" width="900" height="520" viewBox="0 0 900 520" role="img" aria-labelledby="title desc">
  <title id="title">OpenClaw report notification preview</title>
  <desc id="desc">A Telegram automation report summarizing social media and website monitoring results.</desc>
  <rect width="900" height="520" fill="#09060f"/>
  <g opacity="0.16" stroke="#7c3aed" fill="none">
    <path d="M0 64c90 36 160 28 250-18M590 80c92-38 188-26 294 20M30 456c112-48 226-48 342 6"/>
    <circle cx="790" cy="330" r="56"/><circle cx="276" cy="86" r="72"/>
  </g>
  <g font-family="Arial, sans-serif">
    <rect x="330" y="24" width="470" height="54" rx="16" fill="#6d5bd0"/>
    <text x="354" y="58" fill="#fff" font-size="15">how is Kintscher doing on Facebook this month?</text>
    <rect x="78" y="94" width="498" height="382" rx="18" fill="#242424"/>
    <text x="104" y="128" fill="#fff" font-size="15" font-weight="800">Kintscher's Facebook is doing decently this month,</text>
    <text x="104" y="149" fill="#d1d5db" font-size="14">with clear spikes tied to property posts.</text>
    <text x="104" y="190" fill="#fff" font-size="14">Reach: 3,739</text>
    <text x="104" y="216" fill="#fff" font-size="14">Post engagements: 376</text>
    <text x="104" y="242" fill="#fff" font-size="14">Page views: 204</text>
    <text x="104" y="268" fill="#fff" font-size="14">Followers: 1,048</text>
    <text x="104" y="318" fill="#fff" font-size="14" font-weight="800">Best-performing posts:</text>
    <text x="104" y="346" fill="#d1d5db" font-size="13">Mar 31 property teaser, reach 1,668, clicks 220</text>
    <text x="104" y="370" fill="#d1d5db" font-size="13">Apr 16 open house coming reel, reach 639</text>
    <text x="104" y="394" fill="#d1d5db" font-size="13">Apr 14 Burscheid listing reel, reach 503</text>
    <rect x="630" y="164" width="210" height="210" rx="24" fill="#0f172a" stroke="#334155"/>
    <text x="735" y="214" text-anchor="middle" fill="#f8fafc" font-size="17" font-weight="900">REPORT</text>
    <rect x="670" y="246" width="130" height="14" rx="7" fill="#fb923c"/>
    <rect x="670" y="280" width="98" height="14" rx="7" fill="#60a5fa"/>
    <rect x="670" y="314" width="150" height="14" rx="7" fill="#34d399"/>
    <text x="735" y="410" text-anchor="middle" fill="#a78bfa" font-size="14" font-weight="800">Friday PDF ready</text>
  </g>
</svg>
